<?xml version="1.0" encoding="UTF-8"?>
<svg width="613px" height="459px" viewBox="0 0 613 459" version="1.1" xmlns="http://www.w3.org/2000/svg" xmlns:xlink="http://www.w3.org/1999/xlink">
    <!-- Generator: Sketch 50.2 (55047) - http://www.bohemiancoding.com/sketch -->
    <title>Mask</title>
    <desc>Created with Sketch.</desc>
    <defs></defs>
    <g id="Dettaglio-Villa" stroke="none" stroke-width="1" fill="none" fill-rule="evenodd">
        <g id="Scheda-Villa---NEW" class="g-fill" transform="translate(-757.000000, -864.000000)" fill="#EEEEEE" fill-rule="nonzero">
            <g id="Intro" transform="translate(80.000000, 834.000000)">
                <g id="Mappa" transform="translate(677.000000, 30.000000)">
                    <g id="mappa">
                        <path d="M135.771827,342.834969 L137.746852,341.618509 L144.363185,347.20765 L144.75819,354.966693 L140.116882,360.424325 L133.928471,359.99692 L123,346.615858 L123.296254,341.486999 L128.06923,338.889693 L135.771827,342.834969 Z M67.9260672,196.113101 L72.2711218,193.778812 L71.0202727,206.896856 L67.9260672,196.113101 Z M50.2495951,188.255426 L53.9692251,186.907456 L57.5571869,189.471886 L57.5242698,193.252776 L55.121323,193.844567 L52.0271174,190.491082 L43.9295156,191.411647 L41.197398,186.808825 L47.6491457,183.356708 L50.2495951,188.255426 Z M10.8478499,184.737555 L2.65149694,182.271757 L0.347301322,175.17026 L6.46987826,175.334647 L10.8478499,184.737555 Z M603.98072,114.906167 L613,117.076069 L603.914886,119.574744 L598.944407,123.684407 L596.409792,133.185947 L599.174826,132.627032 L585.612989,157.580904 L553.485919,199.433708 L553.387168,204.858463 L547.922932,208.573598 L548.581274,211.59831 L537.718637,225.60404 L536.467788,229.286298 L538.870735,234.941193 L535.513193,246.711267 L531.497309,251.840126 L531.727729,263.412936 L521.4576,273.11174 L516.388369,282.547525 L518.330477,317.397464 L529.324782,324.203066 L534.295261,325.452403 L536.533622,323.249624 L545.223732,333.868992 L543.413292,336.367667 L540.28617,334.197765 L539.660745,339.688274 L538.146559,333.540219 L534.361095,334.855311 L533.274831,345.408925 L536.56654,353.102213 L541.07618,351.622735 L542.952453,354.351551 L540.352004,353.2666 L539.101155,355.107729 L541.306599,360.466729 L546.013742,363.12979 L551.741314,362.866772 L552.070484,372.927226 L548.51544,371.579257 L548.219186,376.806747 L550.523382,378.253349 L553.716338,376.379342 L558.456398,384.56579 L552.564241,381.935606 L548.317937,383.645226 L545.91499,390.746723 L537.093213,392.85087 L527.580177,403.338729 L517.836721,427.339159 L525.440566,451.306712 L523.926381,455.087601 L521.260097,453.443736 L515.400857,459 L504.867391,447.854595 L494.696013,449.695724 L487.28967,443.383282 L481.167093,441.805172 L464.873139,447.42719 L458.520142,443.942196 L449.533779,443.909319 L440.679085,435.525607 L432.38398,432.237877 L416.353362,430.166607 L410.527039,423.887042 L407.827838,412.445742 L397.261456,393.508416 L377.445373,373.453263 L361.01975,365.727097 L344.857464,362.143471 L327.54308,362.537999 L317.009614,365.332569 L312.039135,363.918845 L303.151523,354.877588 L291.00512,353.792637 L275.797429,344.389729 L272.670307,337.419741 L257.956372,325.353771 L252.952976,326.635986 L250.451277,323.874293 L240.246983,323.578397 L232.313966,315.293317 L218.883797,308.652102 L214.538743,303.490366 L210.325357,303.19447 L206.836146,295.336795 L192.25388,281.199556 L177.243691,278.668004 L167.664821,280.936537 L157.921365,266.306139 L150.350436,263.708832 L127.110978,262.886899 L109.434505,267.25958 L98.176864,250.163384 L91.0338576,245.626316 L83.3970949,246.119476 L76.0895031,237.670009 L75.4640786,228.168469 L67.432311,216.1025 L73.8511416,212.420242 L77.6036888,200.551536 L72.9294634,193.482917 L79.743299,183.948499 L79.0849574,177.340162 L83.1666754,175.53191 L78.2949475,170.271542 L83.2654266,169.022205 L92.02137,159.09326 L97.5843565,160.112456 L103.476514,157.778168 L107.459481,153.800014 L107.064476,150.117757 L115.557082,150.44653 L120.000888,144.035456 L116.347092,136.835327 L119.013376,133.350333 L120.132557,136.144904 L125.333455,135.553112 L125.498041,141.503904 L129.053085,144.988898 L128.921417,150.249266 L132.641047,156.857603 L147.651236,168.463291 L162.463922,164.386505 L177.539945,155.016474 L173.326558,144.166965 L176.552432,143.410787 L178.72496,139.301125 L177.408276,137.065468 L182.740843,132.561278 L196.76352,137.52575 L203.709023,134.698302 L205.157375,130.226989 L210.917864,131.081799 L218.093788,125.821431 L220.266315,131.344818 L226.421809,135.027075 L228.10058,142.095695 L225.664716,145.843707 L229.121009,150.676671 L239.950729,153.701382 L247.357072,151.893131 L250.286692,148.210873 L255.191337,149.59172 L255.290088,159.45491 L260.392236,165.30707 L284.882543,178.523745 L294.033492,179.937469 L310.261612,175.53191 L324.481791,167.148199 L337.187784,164.649524 L344.56121,169.515364 L351.704217,170.271542 L357.925545,167.115321 L381.65876,171.849653 L396.076441,169.975646 L405.161555,164.879665 L414.115001,166.227634 L441.172841,157.580904 L459.606406,137.920278 L466.716495,140.912112 L483.57004,136.440799 L487.618841,132.298259 L497.164794,140.681971 L509.607451,140.714849 L512.372486,145.909462 L518.824233,147.224554 L531.628977,140.188812 L539.035321,131.8051 L542.787868,121.350118 L539.924082,115.333572 L542.689116,115.136308 L544.993312,120.166535 L543.21579,127.103646 L550.622133,129.174916 L569.516537,124.01318 L590.254298,110.040327 L596.014787,109.580044 L603.98072,114.906167 Z M501.246512,88.8673447 L502.234025,94.4893632 L498.810648,95.0811546 L493.214745,91.4975288 L491.338471,85.4809827 L494.794765,81.0425471 L496.473536,82.6864121 L495.025184,84.1001361 L501.246512,88.8673447 Z M495.453106,68.3847862 L498.448561,70.5218108 L494.235174,71.9026574 L493.906003,79.5959458 L484.392967,69.6012463 L487.125085,62.4339947 L495.387272,62.0065898 L495.453106,68.3847862 Z M393.870996,59.6394241 L391.00721,59.8038106 L390.612205,56.022921 L394.068499,54.9708474 L393.870996,59.6394241 Z M480.047913,49.2173197 L479.949161,58.6531051 L477.348712,59.2448965 L467.243168,53.4584915 L469.053608,48.7899148 L471.588223,48.8227921 L480.047913,49.2173197 Z M430.211453,49.2830743 L433.108156,54.7407063 L426.425989,54.0831602 L424.023042,50.2036387 L425.537228,48.3625098 L430.211453,49.2830743 Z M514.314593,38.9596017 L511.253305,39.9787981 L511.714144,36.033522 L514.610847,35.5732397 L514.314593,38.9596017 Z M198.442291,21.8305279 L196.006427,24.6579758 L190.377606,25.1511353 L191.529704,21.1401046 L194.920163,19.3647303 L197.026856,20.8770862 L198.442291,21.8305279 Z M542.787868,2.16990187 L537.751554,8.44946637 L533.439417,4.17541723 L539.858248,0 L542.787868,2.16990187 Z" id="Mask"></path>
                    </g>
                </g>
            </g>
        </g>
    </g>
</svg>
